<svg xmlns="http://www.w3.org/2000/svg" xmlns:xlink="http://www.w3.org/1999/xlink" id="visual" width="960" height="540" version="1.1" viewBox="0 0 960 540"><rect width="960" height="540" x="0" y="0" fill="#001220"/><defs><linearGradient id="grad1_0" x1="43.8%" x2="100%" y1="0%" y2="100%"><stop offset="14.444%" stop-color="#0f4c75" stop-opacity="1"/><stop offset="85.556%" stop-color="#0f4c75" stop-opacity="1"/></linearGradient></defs><defs><linearGradient id="grad1_1" x1="43.8%" x2="100%" y1="0%" y2="100%"><stop offset="14.444%" stop-color="#0f4c75" stop-opacity="1"/><stop offset="85.556%" stop-color="#0b3d5e" stop-opacity="1"/></linearGradient></defs><defs><linearGradient id="grad1_2" x1="43.8%" x2="100%" y1="0%" y2="100%"><stop offset="14.444%" stop-color="#082e48" stop-opacity="1"/><stop offset="85.556%" stop-color="#0b3d5e" stop-opacity="1"/></linearGradient></defs><defs><linearGradient id="grad1_3" x1="43.8%" x2="100%" y1="0%" y2="100%"><stop offset="14.444%" stop-color="#082e48" stop-opacity="1"/><stop offset="85.556%" stop-color="#052033" stop-opacity="1"/></linearGradient></defs><defs><linearGradient id="grad1_4" x1="43.8%" x2="100%" y1="0%" y2="100%"><stop offset="14.444%" stop-color="#001220" stop-opacity="1"/><stop offset="85.556%" stop-color="#052033" stop-opacity="1"/></linearGradient></defs><defs><linearGradient id="grad2_0" x1="0%" x2="56.3%" y1="0%" y2="100%"><stop offset="14.444%" stop-color="#0f4c75" stop-opacity="1"/><stop offset="85.556%" stop-color="#0f4c75" stop-opacity="1"/></linearGradient></defs><defs><linearGradient id="grad2_1" x1="0%" x2="56.3%" y1="0%" y2="100%"><stop offset="14.444%" stop-color="#0b3d5e" stop-opacity="1"/><stop offset="85.556%" stop-color="#0f4c75" stop-opacity="1"/></linearGradient></defs><defs><linearGradient id="grad2_2" x1="0%" x2="56.3%" y1="0%" y2="100%"><stop offset="14.444%" stop-color="#0b3d5e" stop-opacity="1"/><stop offset="85.556%" stop-color="#082e48" stop-opacity="1"/></linearGradient></defs><defs><linearGradient id="grad2_3" x1="0%" x2="56.3%" y1="0%" y2="100%"><stop offset="14.444%" stop-color="#052033" stop-opacity="1"/><stop offset="85.556%" stop-color="#082e48" stop-opacity="1"/></linearGradient></defs><defs><linearGradient id="grad2_4" x1="0%" x2="56.3%" y1="0%" y2="100%"><stop offset="14.444%" stop-color="#052033" stop-opacity="1"/><stop offset="85.556%" stop-color="#001220" stop-opacity="1"/></linearGradient></defs><g><path fill="#04192a" d="M0 351C-47.5 343.4 -94.9 335.9 -129.3 312.3C-163.8 288.7 -185.1 249.1 -219.2 219.2C-253.3 189.3 -300.2 169.2 -324.3 134.3C-348.4 99.4 -349.7 49.7 -351 0L0 0Z" transform="translate(960, 0)"/><path fill="#06273e" d="M0 280.8C-38 274.7 -76 268.7 -103.5 249.8C-131 230.9 -148.1 199.3 -175.4 175.4C-202.6 151.5 -240.2 135.4 -259.4 107.5C-278.7 79.5 -279.8 39.8 -280.8 0L0 0Z" transform="translate(960, 0)"/><path fill="#093553" d="M0 210.6C-28.5 206.1 -57 201.5 -77.6 187.4C-98.3 173.2 -111.1 149.4 -131.5 131.5C-152 113.6 -180.1 101.5 -194.6 80.6C-209 59.6 -209.8 29.8 -210.6 0L0 0Z" transform="translate(960, 0)"/><path fill="#0d4469" d="M0 140.4C-19 137.4 -38 134.3 -51.7 124.9C-65.5 115.5 -74 99.6 -87.7 87.7C-101.3 75.7 -120.1 67.7 -129.7 53.7C-139.4 39.8 -139.9 19.9 -140.4 0L0 0Z" transform="translate(960, 0)"/><path fill="#0f4c75" d="M0 70.2C-9.5 68.7 -19 67.2 -25.9 62.5C-32.8 57.7 -37 49.8 -43.8 43.8C-50.7 37.9 -60 33.8 -64.9 26.9C-69.7 19.9 -69.9 9.9 -70.2 0L0 0Z" transform="translate(960, 0)"/></g><g><path fill="#04192a" d="M0 -351C42.7 -331.2 85.5 -311.3 119.4 -288.3C153.3 -265.2 178.4 -238.8 215 -215C251.6 -191.1 299.7 -169.7 324.3 -134.3C348.9 -98.9 349.9 -49.5 351 0L0 0Z" transform="translate(0, 540)"/><path fill="#06273e" d="M0 -280.8C34.2 -264.9 68.4 -249.1 95.5 -230.6C122.6 -212.1 142.7 -191.1 172 -172C201.2 -152.9 239.7 -135.8 259.4 -107.5C279.1 -79.1 280 -39.6 280.8 0L0 0Z" transform="translate(0, 540)"/><path fill="#093553" d="M0 -210.6C25.6 -198.7 51.3 -186.8 71.6 -173C92 -159.1 107 -143.3 129 -129C150.9 -114.7 179.8 -101.8 194.6 -80.6C209.3 -59.3 210 -29.7 210.6 0L0 0Z" transform="translate(0, 540)"/><path fill="#0d4469" d="M0 -140.4C17.1 -132.5 34.2 -124.5 47.8 -115.3C61.3 -106.1 71.3 -95.5 86 -86C100.6 -76.4 119.9 -67.9 129.7 -53.7C139.6 -39.6 140 -19.8 140.4 0L0 0Z" transform="translate(0, 540)"/><path fill="#0f4c75" d="M0 -70.2C8.5 -66.2 17.1 -62.3 23.9 -57.7C30.7 -53 35.7 -47.8 43 -43C50.3 -38.2 59.9 -33.9 64.9 -26.9C69.8 -19.8 70 -9.9 70.2 0L0 0Z" transform="translate(0, 540)"/></g></svg>