<svg id="visual" viewBox="0 0 960 540" width="960" height="540" xmlns="http://www.w3.org/2000/svg"
    xmlns:xlink="http://www.w3.org/1999/xlink" version="1.1">
    <rect x="0" y="0" width="960" height="540" fill="#001220"></rect>
    <defs>
        <linearGradient id="grad1_0" x1="43.8%" y1="100%" x2="100%" y2="0%">
            <stop offset="14.444444444444446%" stop-color="#0f4c75" stop-opacity="1"></stop>
            <stop offset="85.55555555555554%" stop-color="#0f4c75" stop-opacity="1"></stop>
        </linearGradient>
    </defs>
    <defs>
        <linearGradient id="grad1_1" x1="43.8%" y1="100%" x2="100%" y2="0%">
            <stop offset="14.444444444444446%" stop-color="#0f4c75" stop-opacity="1"></stop>
            <stop offset="85.55555555555554%" stop-color="#0b3d5e" stop-opacity="1"></stop>
        </linearGradient>
    </defs>
    <defs>
        <linearGradient id="grad1_2" x1="43.8%" y1="100%" x2="100%" y2="0%">
            <stop offset="14.444444444444446%" stop-color="#082e48" stop-opacity="1"></stop>
            <stop offset="85.55555555555554%" stop-color="#0b3d5e" stop-opacity="1"></stop>
        </linearGradient>
    </defs>
    <defs>
        <linearGradient id="grad1_3" x1="43.8%" y1="100%" x2="100%" y2="0%">
            <stop offset="14.444444444444446%" stop-color="#082e48" stop-opacity="1"></stop>
            <stop offset="85.55555555555554%" stop-color="#052033" stop-opacity="1"></stop>
        </linearGradient>
    </defs>
    <defs>
        <linearGradient id="grad1_4" x1="43.8%" y1="100%" x2="100%" y2="0%">
            <stop offset="14.444444444444446%" stop-color="#001220" stop-opacity="1"></stop>
            <stop offset="85.55555555555554%" stop-color="#052033" stop-opacity="1"></stop>
        </linearGradient>
    </defs>
    <defs>
        <linearGradient id="grad2_0" x1="0%" y1="100%" x2="56.3%" y2="0%">
            <stop offset="14.444444444444446%" stop-color="#0f4c75" stop-opacity="1"></stop>
            <stop offset="85.55555555555554%" stop-color="#0f4c75" stop-opacity="1"></stop>
        </linearGradient>
    </defs>
    <defs>
        <linearGradient id="grad2_1" x1="0%" y1="100%" x2="56.3%" y2="0%">
            <stop offset="14.444444444444446%" stop-color="#0b3d5e" stop-opacity="1"></stop>
            <stop offset="85.55555555555554%" stop-color="#0f4c75" stop-opacity="1"></stop>
        </linearGradient>
    </defs>
    <defs>
        <linearGradient id="grad2_2" x1="0%" y1="100%" x2="56.3%" y2="0%">
            <stop offset="14.444444444444446%" stop-color="#0b3d5e" stop-opacity="1"></stop>
            <stop offset="85.55555555555554%" stop-color="#082e48" stop-opacity="1"></stop>
        </linearGradient>
    </defs>
    <defs>
        <linearGradient id="grad2_3" x1="0%" y1="100%" x2="56.3%" y2="0%">
            <stop offset="14.444444444444446%" stop-color="#052033" stop-opacity="1"></stop>
            <stop offset="85.55555555555554%" stop-color="#082e48" stop-opacity="1"></stop>
        </linearGradient>
    </defs>
    <defs>
        <linearGradient id="grad2_4" x1="0%" y1="100%" x2="56.3%" y2="0%">
            <stop offset="14.444444444444446%" stop-color="#052033" stop-opacity="1"></stop>
            <stop offset="85.55555555555554%" stop-color="#001220" stop-opacity="1"></stop>
        </linearGradient>
    </defs>
    <g transform="translate(960, 540)">
        <path
            d="M-351 0C-343.4 -47.5 -335.9 -94.9 -312.3 -129.3C-288.7 -163.8 -249.1 -185.1 -219.2 -219.2C-189.3 -253.3 -169.2 -300.2 -134.3 -324.3C-99.4 -348.4 -49.7 -349.7 0 -351L0 0Z"
            fill="#04192a"></path>
        <path
            d="M-280.8 0C-274.7 -38 -268.7 -76 -249.8 -103.5C-230.9 -131 -199.3 -148.1 -175.4 -175.4C-151.5 -202.6 -135.4 -240.2 -107.5 -259.4C-79.5 -278.7 -39.8 -279.8 0 -280.8L0 0Z"
            fill="#06273e"></path>
        <path
            d="M-210.6 0C-206.1 -28.5 -201.5 -57 -187.4 -77.6C-173.2 -98.3 -149.4 -111.1 -131.5 -131.5C-113.6 -152 -101.5 -180.1 -80.6 -194.6C-59.6 -209 -29.8 -209.8 0 -210.6L0 0Z"
            fill="#093553"></path>
        <path
            d="M-140.4 0C-137.4 -19 -134.3 -38 -124.9 -51.7C-115.5 -65.5 -99.6 -74 -87.7 -87.7C-75.7 -101.3 -67.7 -120.1 -53.7 -129.7C-39.8 -139.4 -19.9 -139.9 0 -140.4L0 0Z"
            fill="#0d4469"></path>
        <path
            d="M-70.2 0C-68.7 -9.5 -67.2 -19 -62.5 -25.9C-57.7 -32.8 -49.8 -37 -43.8 -43.8C-37.9 -50.7 -33.8 -60 -26.9 -64.9C-19.9 -69.7 -9.9 -69.9 0 -70.2L0 0Z"
            fill="#0f4c75"></path>
    </g>
    <g transform="translate(0, 0)">
        <path
            d="M351 0C331.2 42.7 311.3 85.5 288.3 119.4C265.2 153.3 238.8 178.4 215 215C191.1 251.6 169.7 299.7 134.3 324.3C98.9 348.9 49.5 349.9 0 351L0 0Z"
            fill="#04192a"></path>
        <path
            d="M280.8 0C264.9 34.2 249.1 68.4 230.6 95.5C212.1 122.6 191.1 142.7 172 172C152.9 201.2 135.8 239.7 107.5 259.4C79.1 279.1 39.6 280 0 280.8L0 0Z"
            fill="#06273e"></path>
        <path
            d="M210.6 0C198.7 25.6 186.8 51.3 173 71.6C159.1 92 143.3 107 129 129C114.7 150.9 101.8 179.8 80.6 194.6C59.3 209.3 29.7 210 0 210.6L0 0Z"
            fill="#093553"></path>
        <path
            d="M140.4 0C132.5 17.1 124.5 34.2 115.3 47.8C106.1 61.3 95.5 71.3 86 86C76.4 100.6 67.9 119.9 53.7 129.7C39.6 139.6 19.8 140 0 140.4L0 0Z"
            fill="#0d4469"></path>
        <path
            d="M70.2 0C66.2 8.5 62.3 17.1 57.7 23.9C53 30.7 47.8 35.7 43 43C38.2 50.3 33.9 59.9 26.9 64.9C19.8 69.8 9.9 70 0 70.2L0 0Z"
            fill="#0f4c75"></path>
    </g>
</svg>