<?xml version="1.0" standalone="no"?>
<!DOCTYPE svg PUBLIC "-//W3C//DTD SVG 20010904//EN"
 "http://www.w3.org/TR/2001/REC-SVG-20010904/DTD/svg10.dtd">
<svg version="1.0" xmlns="http://www.w3.org/2000/svg"
 width="224.000000pt" height="224.000000pt" viewBox="0 0 224.000000 224.000000"
 preserveAspectRatio="xMidYMid meet">

<g transform="translate(0.000000,224.000000) scale(0.100000,-0.100000)"
fill="#000000" stroke="none">
<path d="M1001 1916 c-33 -18 -50 -53 -51 -103 0 -34 6 -48 34 -77 35 -38 57
-43 103 -24 15 6 36 10 46 9 14 -2 17 6 17 47 0 49 0 50 -34 54 -19 2 -39 2
-45 0 -19 -6 -1 -22 25 -22 29 0 33 -29 6 -53 -19 -17 -68 -22 -88 -9 -40 27
-46 111 -9 147 30 31 54 31 89 4 29 -23 42 -20 32 6 -12 32 -83 44 -125 21z"/>
<path d="M1255 1898 c-18 -54 -46 -180 -42 -184 11 -11 25 6 32 36 6 27 11 30
43 30 54 -1 76 -21 68 -64 -7 -34 6 -57 20 -35 3 6 7 31 8 55 2 25 8 50 14 56
18 18 15 63 -5 80 -16 14 -95 38 -123 38 -6 0 -12 -6 -15 -12z m94 -29 c22 -8
31 -17 31 -34 0 -33 -19 -44 -65 -36 -32 5 -41 11 -43 29 -8 51 14 63 77 41z"/>
<path d="M766 1874 c-68 -25 -68 -25 -33 -126 18 -49 37 -89 42 -88 6 1 8 9 6
18 -12 48 -6 67 25 77 46 15 64 34 64 66 0 30 -31 70 -52 68 -7 0 -31 -7 -52
-15z m72 -38 c12 -26 1 -41 -47 -66 -26 -13 -36 -6 -47 38 -13 48 73 74 94 28z"/>
<path d="M1520 1754 c-93 -77 -112 -95 -106 -101 3 -4 22 2 41 13 34 18 35 18
62 -2 20 -15 29 -31 31 -57 2 -21 7 -37 12 -37 10 0 29 84 37 168 7 77 -1 78
-77 16z m50 -23 c0 -33 -11 -51 -31 -51 -31 0 -36 30 -8 51 31 24 39 24 39 0z"/>
<path d="M580 1785 c0 -2 18 -32 40 -66 47 -72 50 -102 15 -125 -38 -25 -66
-11 -109 56 -21 33 -44 60 -52 60 -20 0 -18 -5 18 -58 52 -79 68 -92 107 -92
57 1 99 48 86 97 -9 36 -76 133 -91 133 -8 0 -14 -2 -14 -5z"/>
<path d="M1665 1608 l-69 -71 48 -44 c31 -28 57 -43 74 -43 58 0 122 65 122
123 0 29 -65 107 -89 107 -10 0 -48 -32 -86 -72z m120 17 c33 -32 33 -78 1
-110 -33 -33 -73 -42 -105 -22 -51 31 -50 42 9 102 30 30 58 55 63 55 4 0 19
-11 32 -25z"/>
<path d="M293 1497 c4 -30 10 -62 13 -71 9 -23 -27 -21 -54 4 -20 19 -40 12
-27 -10 7 -11 150 -110 160 -110 15 0 1 27 -26 49 -47 40 -33 59 49 63 41 2
67 8 70 16 3 9 -17 12 -77 12 l-80 0 -3 47 c-2 29 -8 48 -17 51 -11 4 -13 -6
-8 -51z"/>
<path d="M1848 1432 c-42 -26 -80 -50 -84 -55 -8 -7 5 -36 44 -100 35 -59 47
-33 12 27 -29 51 -29 54 -12 70 30 26 48 19 78 -31 35 -60 47 -34 12 28 -22
40 -22 41 -3 55 30 22 41 17 69 -31 24 -40 47 -59 46 -37 -1 13 -65 115 -75
118 -6 2 -45 -18 -87 -44z"/>
<path d="M1195 1361 c-101 -46 -215 -207 -237 -334 -6 -34 -18 -75 -28 -92
-14 -25 -43 -104 -56 -152 -2 -7 -29 -26 -61 -43 -32 -17 -69 -37 -83 -45 -14
-8 -46 -24 -72 -36 -63 -28 -153 -116 -178 -174 -11 -26 -20 -51 -20 -56 0
-10 1003 -13 1013 -3 9 9 -12 56 -37 84 -13 14 -26 33 -29 43 -4 9 -13 17 -22
17 -8 0 -23 4 -33 9 -9 5 -25 12 -35 15 -24 7 -34 36 -16 47 46 26 54 36 39
54 -11 13 -23 15 -52 11 -30 -5 -43 -2 -63 16 -30 26 -32 44 -5 53 11 3 23 17
26 30 3 13 14 31 25 41 20 18 26 69 9 79 -46 28 60 77 180 83 96 4 116 -4 126
-54 13 -69 -62 -87 -123 -29 -65 61 -75 35 -13 -33 29 -32 44 -42 59 -37 24 7
51 -19 51 -51 0 -25 -18 -32 -37 -13 -6 6 -21 9 -34 7 -17 -2 -25 -11 -29 -32
-3 -16 -14 -34 -25 -40 -51 -29 -74 -86 -34 -86 14 0 24 10 32 30 11 28 37 42
37 20 0 -5 7 -10 15 -10 8 0 15 -4 15 -10 0 -5 -8 -10 -18 -10 -10 0 -23 -5
-30 -12 -16 -16 -16 -68 1 -68 7 0 40 22 73 49 71 58 193 241 201 303 5 34 1
43 -45 95 -27 32 -56 74 -64 93 -32 76 -121 130 -189 115 -34 -8 -111 -47
-147 -76 -32 -25 -38 -18 -16 16 15 23 15 28 3 36 -10 6 -6 9 16 9 17 0 49 11
72 24 58 33 97 40 149 26 24 -7 55 -9 70 -6 25 7 26 8 8 20 -10 7 -35 16 -55
20 -20 3 -44 15 -54 26 -10 11 -30 20 -44 20 -14 0 -35 7 -45 15 -28 21 -140
18 -191 -4z m24 -375 c17 -20 25 -78 17 -120 -7 -34 -9 -36 -46 -36 -44 0 -44
-1 -31 33 10 25 -9 97 -31 124 -8 10 0 13 35 13 26 0 49 -6 56 -14z m-92 -31
c9 -24 -1 -27 -15 -5 -8 13 -8 20 -2 20 6 0 13 -7 17 -15z m23 -67 c-1 -28 -2
-30 -11 -15 -6 10 -8 25 -5 33 9 24 16 16 16 -18z"/>
<path d="M1946 1219 c-39 -10 -74 -23 -80 -29 -16 -16 1 -23 31 -13 45 15 60
6 67 -39 7 -45 -2 -63 -39 -72 -14 -4 -25 -13 -25 -21 0 -19 3 -19 52 5 23 11
56 20 74 20 49 0 67 24 59 78 -15 101 -20 104 -139 71z m101 -17 c9 -6 17 -53
14 -88 -1 -14 -35 -24 -48 -15 -30 19 -44 95 -20 104 18 8 41 8 54 -1z"/>
<path d="M120 1211 c0 -10 8 -29 18 -42 50 -70 47 -89 -13 -68 -34 13 -57 7
-39 -10 14 -14 194 -60 199 -51 6 10 -5 20 -43 36 -44 18 -39 44 13 64 56 21
81 37 72 46 -4 5 -29 0 -55 -10 -74 -30 -93 -27 -116 17 -21 40 -36 48 -36 18z"/>
<path d="M1320 843 c-38 -14 -56 -85 -24 -97 41 -16 90 -6 119 24 29 30 29 31
10 49 -21 21 -80 34 -105 24z"/>
</g>
</svg>
