<svg xmlns="http://www.w3.org/2000/svg" viewBox="0 0 38 38"><defs><style>.cls-1{fill:#fff;fill-rule:evenodd;}.cls-2{fill:#3e82f1;}.cls-3{fill:#32a753;}.cls-4{fill:#f9bb00;}.cls-5{fill:#e74133;}</style></defs><title>Asset 17</title><g id="Layer_2" data-name="Layer 2"><g id="Layer_1-2" data-name="Layer 1"><path class="cls-1" d="M1,0A1,1,0,0,0,0,1V37a1,1,0,0,0,1,1H37a1,1,0,0,0,1-1V1a1,1,0,0,0-1-1Z"/><path class="cls-2" d="M19,17.36v3.49h4.84a4.12,4.12,0,0,1-1.79,2.71v2.26H25a8.78,8.78,0,0,0,2.68-6.62,11,11,0,0,0-.16-1.84Z"/><path class="cls-3" d="M19,24.42a5.37,5.37,0,0,1-5-3.71H11V23a9,9,0,0,0,8,5,8.62,8.62,0,0,0,6-2.18l-2.91-2.26A5.43,5.43,0,0,1,19,24.42Z"/><path class="cls-4" d="M10,19a9,9,0,0,0,1,4l3-2.33a5.36,5.36,0,0,1,0-3.42V15H11A9,9,0,0,0,10,19Z"/><path class="cls-5" d="M11,15l3,2.33a5.37,5.37,0,0,1,5-3.71,4.83,4.83,0,0,1,3.44,1.35L25,12.34A8.65,8.65,0,0,0,19,10,9,9,0,0,0,11,15Z"/></g></g></svg>