<svg xmlns="http://www.w3.org/2000/svg" xmlns:xlink="http://www.w3.org/1999/xlink" id="em6wghdkiauc1" shape-rendering="geometricPrecision" text-rendering="geometricPrecision" viewBox="0 0 120 120"><style>@keyframes em6wghdkiauc2_tr__tr{0%{transform:translate(60.025px,60px) rotate(0deg)}}#em6wghdkiauc2_tr{animation:em6wghdkiauc2_tr__tr 1000ms linear infinite normal forwards}</style><g id="em6wghdkiauc2_tr" transform="translate(60.025000,60) rotate(0)"><g id="em6wghdkiauc2" transform="translate(-60,-60)"><path id="em6wghdkiauc3" fill="none" stroke="#F5F8FC" stroke-miterlimit="10" stroke-width="6" d="M59.900000,60L104.900000,89C95,104.200000,78.100000,113.500000,59.900000,113.500000C30.500000,113.500000,6.400000,89.400000,6.400000,60C6.400000,30.600000,30.500000,6.500000,59.900000,6.500000C89.300000,6.500000,113.400000,30.600000,113.400000,60L59.900000,60Z"/><path id="em6wghdkiauc4" fill="none" stroke="#F5F6F7" stroke-miterlimit="10" stroke-width="6" d="M59.900000,60L99.400000,96C89.200000,107.100000,74.900000,113.500000,59.900000,113.500000C30.500000,113.500000,6.400000,89.400000,6.400000,60C6.400000,30.600000,30.500000,6.500000,59.900000,6.500000C89.300000,6.500000,113.400000,30.600000,113.400000,60L59.900000,60Z"/><path id="em6wghdkiauc5" fill="none" stroke="#E7EDF7" stroke-miterlimit="10" stroke-width="6" d="M59.900000,60L94.500000,100.900000C84.800000,109,72.600000,113.500000,59.900000,113.500000C30.500000,113.500000,6.400000,89.400000,6.400000,60C6.400000,30.600000,30.500000,6.500000,59.900000,6.500000C89.300000,6.500000,113.400000,30.600000,113.400000,60L59.900000,60Z"/><path id="em6wghdkiauc6" fill="none" stroke="#D2DFF8" stroke-miterlimit="10" stroke-width="6" d="M59.900000,60L88.300000,105.300000C79.800000,110.700000,69.900000,113.500000,59.900000,113.500000C30.500000,113.500000,6.400000,89.400000,6.400000,60C6.400000,30.600000,30.500000,6.500000,59.900000,6.500000C89.300000,6.500000,113.400000,30.600000,113.400000,60L59.900000,60Z"/><path id="em6wghdkiauc7" fill="none" stroke="#C5D6F8" stroke-miterlimit="10" stroke-width="6" d="M59.900000,60L82.100000,108.700000C75.200000,111.800000,67.700000,113.500000,59.900000,113.500000C30.500000,113.500000,6.400000,89.400000,6.400000,60C6.400000,30.600000,30.500000,6.500000,59.900000,6.500000C89.300000,6.500000,113.400000,30.600000,113.400000,60L59.900000,60Z"/><path id="em6wghdkiauc8" fill="none" stroke="#B6CAF5" stroke-miterlimit="10" stroke-width="6" d="M59.900000,60L75.700000,111.100000C70.600000,112.700000,65.300000,113.400000,59.900000,113.400000C30.500000,113.500000,6.400000,89.400000,6.400000,60C6.400000,30.600000,30.500000,6.500000,59.900000,6.500000C89.300000,6.500000,113.400000,30.600000,113.400000,60L59.900000,60Z"/><path id="em6wghdkiauc9" fill="none" stroke="#AAC0EF" stroke-miterlimit="10" stroke-width="6" d="M59.900000,60L63.300000,113.400000C62.100000,113.500000,61.100000,113.500000,59.900000,113.500000C30.500000,113.500000,6.400000,89.400000,6.400000,60C6.400000,30.600000,30.500000,6.500000,59.900000,6.500000C89.300000,6.500000,113.400000,30.600000,113.400000,60L59.900000,60Z"/><path id="em6wghdkiauc10" fill="none" stroke="#9CB5EA" stroke-miterlimit="10" stroke-width="6" d="M59.900000,60L53.200000,113.100000C26.500000,109.700000,6.400000,86.800000,6.400000,60C6.400000,30.600000,30.500000,6.500000,59.900000,6.500000C89.300000,6.500000,113.400000,30.600000,113.400000,60L59.900000,60Z"/><path id="em6wghdkiauc11" fill="none" stroke="#93AEE8" stroke-miterlimit="10" stroke-width="6" d="M59.900000,60L44.400000,111.100000C21.900000,104.300000,6.400000,83.400000,6.400000,60C6.400000,30.600000,30.500000,6.500000,59.900000,6.500000C89.300000,6.500000,113.400000,30.600000,113.400000,60L59.900000,60Z"/><path id="em6wghdkiauc12" fill="none" stroke="#84A4E8" stroke-miterlimit="10" stroke-width="6" d="M59.900000,60L35.600000,107.600000C17.700000,98.600000,6.400000,80.100000,6.400000,60C6.400000,30.600000,30.500000,6.500000,59.900000,6.500000C89.300000,6.500000,113.400000,30.600000,113.400000,60L59.900000,60Z"/><path id="em6wghdkiauc13" fill="none" stroke="#7C9CE2" stroke-miterlimit="10" stroke-width="6" d="M59.900000,60L27.200000,102.400000C14.100000,92.200000,6.400000,76.600000,6.400000,60C6.400000,30.600000,30.500000,6.500000,59.900000,6.500000C89.300000,6.500000,113.400000,30.600000,113.400000,60L59.900000,60Z"/><path id="em6wghdkiauc14" fill="none" stroke="#7494D9" stroke-miterlimit="10" stroke-width="4" d="M59.900000,60L17.900000,93.200000C10.500000,83.700000,6.400000,72,6.400000,60C6.400000,30.600000,30.500000,6.500000,59.900000,6.500000C89.300000,6.500000,113.400000,30.600000,113.400000,60L59.900000,60Z"/><path id="em6wghdkiauc15" fill="none" stroke="#6C8DD3" stroke-miterlimit="10" stroke-width="6" d="M59.900000,60L17.900000,93.200000C10.500000,83.700000,6.400000,72,6.400000,60C6.400000,30.600000,30.500000,6.500000,59.900000,6.500000C89.300000,6.500000,113.400000,30.600000,113.400000,60L59.900000,60Z"/><path id="em6wghdkiauc16" fill="none" stroke="#6485CB" stroke-miterlimit="10" stroke-width="6" d="M59.900000,60L12.700000,85.300000C8.500000,77.500000,6.400000,68.800000,6.400000,60C6.400000,30.600000,30.500000,6.500000,59.900000,6.500000C89.300000,6.500000,113.400000,30.600000,113.400000,60L59.900000,60Z"/><path id="em6wghdkiauc17" fill="none" stroke="#5F80C6" stroke-miterlimit="10" stroke-width="6" d="M59.900000,60L8.500000,74.600000C7.100000,69.800000,6.500000,64.900000,6.500000,60C6.500000,30.600000,30.600000,6.500000,60,6.500000C89.400000,6.500000,113.500000,30.600000,113.500000,60L59.900000,60Z"/><path id="em6wghdkiauc18" fill="none" stroke="#5879BF" stroke-miterlimit="10" stroke-width="6" d="M59.900000,60L6.600000,64.600000C6.500000,63,6.400000,61.600000,6.400000,60C6.400000,30.600000,30.500000,6.500000,59.900000,6.500000C89.300000,6.500000,113.400000,30.600000,113.400000,60L59.900000,60Z"/><path id="em6wghdkiauc19" fill="none" stroke="#486BB7" stroke-miterlimit="10" stroke-width="6" d="M59.900000,60L6.600000,55C9.200000,27.700000,32.500000,6.500000,59.900000,6.500000C89.300000,6.500000,113.400000,30.600000,113.400000,60L59.900000,60Z"/><path id="em6wghdkiauc20" fill="none" stroke="#4568B2" stroke-miterlimit="10" stroke-width="6" d="M59.900000,60L8.700000,44.300000C15.700000,21.800000,36.500000,6.500000,59.900000,6.500000C89.300000,6.500000,113.400000,30.600000,113.400000,60L59.900000,60Z"/><path id="em6wghdkiauc21" fill="none" stroke="#3E63B1" stroke-miterlimit="10" stroke-width="6" d="M59.900000,60L13.600000,33.200000C23.200000,16.700000,40.900000,6.500000,59.900000,6.500000C89.300000,6.500000,113.400000,30.600000,113.400000,60L59.900000,60Z"/><path id="em6wghdkiauc22" fill="none" stroke="#3A5FAC" stroke-miterlimit="10" stroke-width="6" d="M59.900000,60L20.200000,24.200000C30.300000,13,44.800000,6.500000,59.900000,6.500000C89.300000,6.500000,113.400000,30.600000,113.400000,60L59.900000,60Z"/><path id="em6wghdkiauc23" fill="none" stroke="#3459A5" stroke-miterlimit="10" stroke-width="6" d="M59.900000,60L30.600000,15.200000C39.400000,9.500000,49.500000,6.500000,59.900000,6.500000C89.300000,6.500000,113.400000,30.600000,113.400000,60L59.900000,60Z"/><path id="em6wghdkiauc24" fill="none" stroke="#2D53A0" stroke-miterlimit="10" stroke-width="6" d="M59.900000,60L42.900000,9.200000C48.400000,7.400000,54.100000,6.500000,59.900000,6.500000C89.300000,6.500000,113.400000,30.600000,113.400000,60L59.900000,60Z"/><path id="em6wghdkiauc25" fill="none" stroke="#284E9D" stroke-miterlimit="10" stroke-width="6" d="M59.900000,60L59.800000,6.500000L59.900000,6.500000C89.300000,6.500000,113.400000,30.600000,113.400000,60L59.900000,60Z"/><path id="em6wghdkiauc26" fill="none" stroke="#214796" stroke-linecap="round" stroke-linejoin="round" stroke-miterlimit="10" stroke-width="6" d="M59.900000,60L88.700000,14.900000C97.400000,20.700000,102.200000,26.900000,106.800000,34.300000C114.400000,45.700000,114,69.400000,113.300000,60C113.300000,60,59.900000,60,59.900000,60Z"/><circle id="em6wghdkiauc27" r="50.8" fill="#FFF" stroke="none" stroke-width="1" transform="matrix(1 0 0 1 59.90000000000000 60)"/></g></g></svg>