<svg xmlns="http://www.w3.org/2000/svg" xmlns:xlink="http://www.w3.org/1999/xlink" id="em6wghdkiauc1" viewBox="0 0 120 120" shape-rendering="geometricPrecision" text-rendering="geometricPrecision"><style><![CDATA[#em6wghdkiauc2_tr {animation: em6wghdkiauc2_tr__tr 1000ms linear infinite normal forwards}@keyframes em6wghdkiauc2_tr__tr { 0% {transform: translate(60.025000px,60px) rotate(0deg)} 100% {transform: translate(60.025000px,60px) rotate(360deg)} }]]></style><g id="em6wghdkiauc2_tr" transform="translate(60.025000,60) rotate(0)"><g id="em6wghdkiauc2" transform="translate(-60,-60)"><path id="em6wghdkiauc3" d="M59.900000,60L104.900000,89C95,104.200000,78.100000,113.500000,59.900000,113.500000C30.500000,113.500000,6.400000,89.400000,6.400000,60C6.400000,30.600000,30.500000,6.500000,59.900000,6.500000C89.300000,6.500000,113.400000,30.600000,113.400000,60L59.900000,60Z" fill="none" stroke="rgb(245,248,252)" stroke-width="6" stroke-miterlimit="10"/><path id="em6wghdkiauc4" d="M59.900000,60L99.400000,96C89.200000,107.100000,74.900000,113.500000,59.900000,113.500000C30.500000,113.500000,6.400000,89.400000,6.400000,60C6.400000,30.600000,30.500000,6.500000,59.900000,6.500000C89.300000,6.500000,113.400000,30.600000,113.400000,60L59.900000,60Z" fill="none" stroke="rgb(245,246,247)" stroke-width="6" stroke-miterlimit="10"/><path id="em6wghdkiauc5" d="M59.900000,60L94.500000,100.900000C84.800000,109,72.600000,113.500000,59.900000,113.500000C30.500000,113.500000,6.400000,89.400000,6.400000,60C6.400000,30.600000,30.500000,6.500000,59.900000,6.500000C89.300000,6.500000,113.400000,30.600000,113.400000,60L59.900000,60Z" fill="none" stroke="rgb(231,237,247)" stroke-width="6" stroke-miterlimit="10"/><path id="em6wghdkiauc6" d="M59.900000,60L88.300000,105.300000C79.800000,110.700000,69.900000,113.500000,59.900000,113.500000C30.500000,113.500000,6.400000,89.400000,6.400000,60C6.400000,30.600000,30.500000,6.500000,59.900000,6.500000C89.300000,6.500000,113.400000,30.600000,113.400000,60L59.900000,60Z" fill="none" stroke="rgb(210,223,248)" stroke-width="6" stroke-miterlimit="10"/><path id="em6wghdkiauc7" d="M59.900000,60L82.100000,108.700000C75.200000,111.800000,67.700000,113.500000,59.900000,113.500000C30.500000,113.500000,6.400000,89.400000,6.400000,60C6.400000,30.600000,30.500000,6.500000,59.900000,6.500000C89.300000,6.500000,113.400000,30.600000,113.400000,60L59.900000,60Z" fill="none" stroke="rgb(197,214,248)" stroke-width="6" stroke-miterlimit="10"/><path id="em6wghdkiauc8" d="M59.900000,60L75.700000,111.100000C70.600000,112.700000,65.300000,113.400000,59.900000,113.400000C30.500000,113.500000,6.400000,89.400000,6.400000,60C6.400000,30.600000,30.500000,6.500000,59.900000,6.500000C89.300000,6.500000,113.400000,30.600000,113.400000,60L59.900000,60Z" fill="none" stroke="rgb(182,202,245)" stroke-width="6" stroke-miterlimit="10"/><path id="em6wghdkiauc9" d="M59.900000,60L63.300000,113.400000C62.100000,113.500000,61.100000,113.500000,59.900000,113.500000C30.500000,113.500000,6.400000,89.400000,6.400000,60C6.400000,30.600000,30.500000,6.500000,59.900000,6.500000C89.300000,6.500000,113.400000,30.600000,113.400000,60L59.900000,60Z" fill="none" stroke="rgb(170,192,239)" stroke-width="6" stroke-miterlimit="10"/><path id="em6wghdkiauc10" d="M59.900000,60L53.200000,113.100000C26.500000,109.700000,6.400000,86.800000,6.400000,60C6.400000,30.600000,30.500000,6.500000,59.900000,6.500000C89.300000,6.500000,113.400000,30.600000,113.400000,60L59.900000,60Z" fill="none" stroke="rgb(156,181,234)" stroke-width="6" stroke-miterlimit="10"/><path id="em6wghdkiauc11" d="M59.900000,60L44.400000,111.100000C21.900000,104.300000,6.400000,83.400000,6.400000,60C6.400000,30.600000,30.500000,6.500000,59.900000,6.500000C89.300000,6.500000,113.400000,30.600000,113.400000,60L59.900000,60Z" fill="none" stroke="rgb(147,174,232)" stroke-width="6" stroke-miterlimit="10"/><path id="em6wghdkiauc12" d="M59.900000,60L35.600000,107.600000C17.700000,98.600000,6.400000,80.100000,6.400000,60C6.400000,30.600000,30.500000,6.500000,59.900000,6.500000C89.300000,6.500000,113.400000,30.600000,113.400000,60L59.900000,60Z" fill="none" stroke="rgb(132,164,232)" stroke-width="6" stroke-miterlimit="10"/><path id="em6wghdkiauc13" d="M59.900000,60L27.200000,102.400000C14.100000,92.200000,6.400000,76.600000,6.400000,60C6.400000,30.600000,30.500000,6.500000,59.900000,6.500000C89.300000,6.500000,113.400000,30.600000,113.400000,60L59.900000,60Z" fill="none" stroke="rgb(124,156,226)" stroke-width="6" stroke-miterlimit="10"/><path id="em6wghdkiauc14" d="M59.900000,60L17.900000,93.200000C10.500000,83.700000,6.400000,72,6.400000,60C6.400000,30.600000,30.500000,6.500000,59.900000,6.500000C89.300000,6.500000,113.400000,30.600000,113.400000,60L59.900000,60Z" fill="none" stroke="rgb(116,148,217)" stroke-width="4" stroke-miterlimit="10"/><path id="em6wghdkiauc15" d="M59.900000,60L17.900000,93.200000C10.500000,83.700000,6.400000,72,6.400000,60C6.400000,30.600000,30.500000,6.500000,59.900000,6.500000C89.300000,6.500000,113.400000,30.600000,113.400000,60L59.900000,60Z" fill="none" stroke="rgb(108,141,211)" stroke-width="6" stroke-miterlimit="10"/><path id="em6wghdkiauc16" d="M59.900000,60L12.700000,85.300000C8.500000,77.500000,6.400000,68.800000,6.400000,60C6.400000,30.600000,30.500000,6.500000,59.900000,6.500000C89.300000,6.500000,113.400000,30.600000,113.400000,60L59.900000,60Z" fill="none" stroke="rgb(100,133,203)" stroke-width="6" stroke-miterlimit="10"/><path id="em6wghdkiauc17" d="M59.900000,60L8.500000,74.600000C7.100000,69.800000,6.500000,64.900000,6.500000,60C6.500000,30.600000,30.600000,6.500000,60,6.500000C89.400000,6.500000,113.500000,30.600000,113.500000,60L59.900000,60Z" fill="none" stroke="rgb(95,128,198)" stroke-width="6" stroke-miterlimit="10"/><path id="em6wghdkiauc18" d="M59.900000,60L6.600000,64.600000C6.500000,63,6.400000,61.600000,6.400000,60C6.400000,30.600000,30.500000,6.500000,59.900000,6.500000C89.300000,6.500000,113.400000,30.600000,113.400000,60L59.900000,60Z" fill="none" stroke="rgb(88,121,191)" stroke-width="6" stroke-miterlimit="10"/><path id="em6wghdkiauc19" d="M59.900000,60L6.600000,55C9.200000,27.700000,32.500000,6.500000,59.900000,6.500000C89.300000,6.500000,113.400000,30.600000,113.400000,60L59.900000,60Z" fill="none" stroke="rgb(72,107,183)" stroke-width="6" stroke-miterlimit="10"/><path id="em6wghdkiauc20" d="M59.900000,60L8.700000,44.300000C15.700000,21.800000,36.500000,6.500000,59.900000,6.500000C89.300000,6.500000,113.400000,30.600000,113.400000,60L59.900000,60Z" fill="none" stroke="rgb(69,104,178)" stroke-width="6" stroke-miterlimit="10"/><path id="em6wghdkiauc21" d="M59.900000,60L13.600000,33.200000C23.200000,16.700000,40.900000,6.500000,59.900000,6.500000C89.300000,6.500000,113.400000,30.600000,113.400000,60L59.900000,60Z" fill="none" stroke="rgb(62,99,177)" stroke-width="6" stroke-miterlimit="10"/><path id="em6wghdkiauc22" d="M59.900000,60L20.200000,24.200000C30.300000,13,44.800000,6.500000,59.900000,6.500000C89.300000,6.500000,113.400000,30.600000,113.400000,60L59.900000,60Z" fill="none" stroke="rgb(58,95,172)" stroke-width="6" stroke-miterlimit="10"/><path id="em6wghdkiauc23" d="M59.900000,60L30.600000,15.200000C39.400000,9.500000,49.500000,6.500000,59.900000,6.500000C89.300000,6.500000,113.400000,30.600000,113.400000,60L59.900000,60Z" fill="none" stroke="rgb(52,89,165)" stroke-width="6" stroke-miterlimit="10"/><path id="em6wghdkiauc24" d="M59.900000,60L42.900000,9.200000C48.400000,7.400000,54.100000,6.500000,59.900000,6.500000C89.300000,6.500000,113.400000,30.600000,113.400000,60L59.900000,60Z" fill="none" stroke="rgb(45,83,160)" stroke-width="6" stroke-miterlimit="10"/><path id="em6wghdkiauc25" d="M59.900000,60L59.800000,6.500000L59.900000,6.500000C89.300000,6.500000,113.400000,30.600000,113.400000,60L59.900000,60Z" fill="none" stroke="rgb(40,78,157)" stroke-width="6" stroke-miterlimit="10"/><path id="em6wghdkiauc26" d="M59.900000,60L88.700000,14.900000C97.400000,20.700000,102.200000,26.900000,106.800000,34.300000C114.400000,45.700000,114,69.400000,113.300000,60C113.300000,60,59.900000,60,59.900000,60Z" fill="none" stroke="rgb(33,71,150)" stroke-width="6" stroke-linecap="round" stroke-linejoin="round" stroke-miterlimit="10"/><circle id="em6wghdkiauc27" r="50.800000" transform="matrix(1 0 0 1 59.90000000000000 60)" fill="rgb(255,255,255)" stroke="none" stroke-width="1"/></g></g><g id="em6wghdkiauc28"/></svg>
