<svg xmlns="http://www.w3.org/2000/svg" viewBox="0 0 382 85"><path fill="red" d="M118.95 13.28a15.22 15.22 0 00-10.74-10.74C98.73 0 60.74 0 60.74 0s-38 0-47.46 2.54A15.22 15.22 0 002.54 13.28C0 22.75 0 42.52 0 42.52s0 19.77 2.54 29.24A15.22 15.22 0 0013.28 82.5C22.75 85 60.74 85 60.74 85s38 0 47.46-2.54a15.22 15.22 0 0010.74-10.74c2.54-9.47 2.54-29.24 2.54-29.24s0-19.73-2.53-29.2z"/><path fill="#fff" d="M48.59 60.74l31.57-18.22L48.59 24.3v36.44z"/><path fill="#282828" d="M176.34 77.36a13.23 13.23 0 01-5.13-7.56 49.46 49.46 0 01-1.52-13.64v-7.73a44.82 44.82 0 011.74-13.81 13.86 13.86 0 015.43-7.6 17.58 17.58 0 019.69-2.39q5.91 0 9.47 2.43a13.94 13.94 0 015.21 7.6 46.64 46.64 0 011.65 13.77v7.73a47.41 47.41 0 01-1.61 13.68 13.43 13.43 0 01-5.21 7.56q-3.61 2.39-9.77 2.39-6.35.01-9.95-2.43zM189.8 69q1-2.61 1-8.51V43.92a25.68 25.68 0 00-1-8.38 3.58 3.58 0 00-3.52-2.65 3.52 3.52 0 00-3.43 2.65 25.64 25.64 0 00-1 8.38v16.59q0 5.91 1 8.51a3.49 3.49 0 003.47 2.61A3.57 3.57 0 00189.8 69zM360.86 56.29V59a70.75 70.75 0 00.3 7.69 7.29 7.29 0 001.26 3.74 3.58 3.58 0 003 1.17 3.72 3.72 0 003.69-2.09q1-2.08 1.09-7l10.34.61a16.37 16.37 0 01.09 1.91q0 7.39-4 11t-11.42 3.65q-8.86 0-12.42-5.56T349.13 57v-9.3q0-12 3.69-17.51t12.64-5.52q6.17 0 9.47 2.26a12.12 12.12 0 014.65 7 50.87 50.87 0 011.35 13.21v9.12zm1.52-22.41a7.33 7.33 0 00-1.22 3.69 71.89 71.89 0 00-.3 7.78v3.82h8.77v-3.82a64.89 64.89 0 00-.35-7.78 7.45 7.45 0 00-1.28-3.74 3.48 3.48 0 00-2.82-1.09 3.42 3.42 0 00-2.8 1.14zM147.14 55.3L133.5 6h11.9l4.78 22.33q1.83 8.25 2.69 14.07h.35q.61-4.17 2.69-14l5-22.41h11.9L159 55.3v23.63h-11.86zM241.59 25.67v53.26h-9.39l-1-6.52h-.26q-3.82 7.39-11.47 7.38-5.3 0-7.82-3.47t-2.52-10.86V25.67h12v39.1a11.93 11.93 0 00.78 5.08 2.7 2.7 0 002.61 1.52 5.32 5.32 0 003-1A5.92 5.92 0 00229.6 68V25.67zM303.08 25.67v53.26h-9.38l-1-6.52h-.26q-3.82 7.39-11.47 7.38-5.3 0-7.82-3.47t-2.52-10.86V25.67h12v39.1a11.93 11.93 0 00.78 5.08 2.7 2.7 0 002.59 1.52 5.32 5.32 0 003-1 5.92 5.92 0 002.09-2.37V25.67z"/><path fill="#282828" d="M274.16 15.68h-11.9v63.25h-11.73V15.68h-11.9V6h35.53zM342.76 34.18q-1.09-5-3.52-7.3a9.45 9.45 0 00-6.69-2.26 11.09 11.09 0 00-6.17 1.87 12.7 12.7 0 00-4.38 4.92h-.09V3.34h-11.6v75.59h9.9l1.22-5h.26a10.17 10.17 0 004.17 4.26 12.36 12.36 0 006.14 1.52 9.44 9.44 0 008.95-5.6q2.87-5.6 2.87-17.51v-8.43a70 70 0 00-1.06-13.99zm-11 21.72a67.4 67.4 0 01-.48 9.12 9.85 9.85 0 01-1.61 4.69 3.71 3.71 0 01-3 1.39 5.56 5.56 0 01-2.74-.7 5.24 5.24 0 01-2-2.08V38.1a7.57 7.57 0 012.07-3.56 4.61 4.61 0 013.21-1.39 3.24 3.24 0 012.79 1.43 11 11 0 011.39 4.82 89.92 89.92 0 01.39 9.64z"/></svg>