<svg xmlns="http://www.w3.org/2000/svg" enable-background="new 0 0 64 64" viewBox="0 0 64 64"><path fill="#788d9a" d="M64,8.93v32.85H0V8.93c0-2.36,1.92-4.28,4.29-4.28h55.42c1.25,0,2.37,0.53,3.15,1.39
			C63.57,6.8,64,7.81,64,8.93z"/><path fill="#dadde1" d="M64,41.79v4.67c0,2.36-1.92,4.28-4.29,4.28H4.29c-0.88,0-1.71-0.27-2.4-0.73C0.75,49.24,0,47.93,0,46.45
			v-4.67H64z"/><rect width="56.62" height="30.01" x="3.69" y="8.21" fill="#f2f2f2"/><polygon fill="#bababa" points="38.71 56.26 25.29 56.26 26.3 50.74 37.7 50.74"/><path fill="#dadde1" d="M45.1,57.69v0.22c0,0.79-0.63,1.43-1.42,1.43H20.33c-0.79,0-1.43-0.64-1.43-1.43v-0.22
			c0-0.79,0.64-1.43,1.43-1.43h23.35C44.47,56.26,45.1,56.9,45.1,57.69z"/><path fill="#788d9a" d="M34.24,46.26c0,1.24-1,2.24-2.24,2.24c-1.24,0-2.24-1-2.24-2.24c0-1.24,1-2.24,2.24-2.24
			C33.24,44.02,34.24,45.02,34.24,46.26z"/><path fill="#76bfe9" d="M26.79 26.17c-.03-.09-.07-.16-.13-.21-.06-.04-.14-.08-.23-.13l-5.33-2.47 5.43-2.54c.07-.04.13-.08.18-.11.04-.04.08-.1.1-.19.03-.09.04-.21.05-.36.01-.15.02-.35.02-.61 0-.38-.04-.63-.12-.75-.07-.12-.2-.14-.38-.05l-7.22 3.58c-.04.02-.08.06-.11.11-.04.04-.07.11-.09.18-.01.08-.03.18-.04.3-.01.13-.02.27-.02.43 0 .32.02.57.06.72.04.17.11.27.19.32l7.23 3.6c.09.04.17.07.23.07.06.01.11-.01.15-.07s.07-.15.09-.28c.02-.14.03-.32.03-.55 0-.26-.01-.47-.02-.63C26.85 26.37 26.82 26.25 26.79 26.17zM35.89 15.13c-.01-.08-.06-.15-.14-.2-.08-.05-.2-.09-.36-.11-.16-.03-.37-.04-.64-.04-.2 0-.37.01-.51.03-.14.01-.26.03-.34.07-.09.03-.16.07-.21.12-.05.06-.09.12-.12.21l-5.63 15.81c-.03.08-.04.16-.04.22v.06c.02.08.06.14.15.19.08.05.21.09.37.12.17.02.38.03.63.03.21 0 .38-.01.52-.02.13-.02.24-.04.34-.07.09-.03.16-.07.21-.12.05-.05.09-.12.12-.2l.8-2.25 4.82-13.58C35.9 15.3 35.9 15.2 35.89 15.13zM45.03 22.65c-.04-.17-.11-.27-.19-.3l-2.72-1.36-4.51-2.25c-.09-.05-.17-.07-.23-.08-.06 0-.11.02-.15.08-.05.05-.07.15-.09.28s-.02.31-.02.55c0 .26 0 .47.01.62.01.16.03.28.06.37.03.09.08.16.14.2.06.05.14.09.24.13l2.85 1.33 2.47 1.14-5.42 2.55c-.08.03-.14.06-.18.11-.05.04-.08.1-.11.19-.02.09-.04.2-.05.36-.01.15-.01.35-.01.61 0 .19 0 .34.02.46.02.13.04.22.09.28.04.06.09.1.15.11.06 0 .14-.02.23-.06l7.22-3.58c.05-.02.08-.05.12-.1.03-.05.06-.11.08-.19.03-.08.04-.18.06-.3.01-.12.01-.26.01-.43C45.1 23.05 45.08 22.81 45.03 22.65z"/><path d="M64,8.93v37.52c0,2.36-1.92,4.28-4.29,4.28H37.7l1.01,5.53h4.97c0.79,0,1.42,0.64,1.42,1.43v0.22
		c0,0.79-0.63,1.43-1.42,1.43H20.33c-0.79,0-1.43-0.64-1.43-1.43v-0.22c0-0.79,0.64-1.43,1.43-1.43h4.96l1.01-5.53H4.29
		c-0.88,0-1.71-0.27-2.4-0.73l11.4-8.22l4.94-3.56l9.67-6.97v-0.01l3.14-2.26l9.38-6.76l1.7-1.23L59.85,8.21l3.01-2.17
		C63.57,6.8,64,7.81,64,8.93z" opacity=".1"/></svg>