<svg xmlns="http://www.w3.org/2000/svg" style="max-height: 0.77rem;margin-right:0.25rem" width="512.002" height="512"
    viewBox="0 0 512.002 512">
    <defs>
        <linearGradient id="a" x1=".5" x2=".5" y2="1" gradientUnits="objectBoundingBox">
            <stop offset="0" stop-color="#feae07" />
            <stop offset="1" stop-color="#fd2959" />
        </linearGradient>
    </defs>
    <g transform="translate(15468.002 21737)">
        <rect width="512" height="512" fill="url(#a)" data-name="RECTANGLE ALBUM COVER" rx="100"
            transform="translate(-15468 -21737)" />
        <g transform="translate(-15386.08 -21583.398)">
            <path fill="#fff"
                d="M265.008,434.728,159.7,402.316v54.133c0,25.026,47.163,45.316,105.339,45.316s105.344-20.29,105.344-45.316c0-.2-.065-.4-.069-.587V402.316Z"
                data-name="Path 14617" transform="translate(-88.501 -297.146)" />
            <path fill="#fff"
                d="M0,234.328l37.621,13.458,3.206-6.866,13.821-1.175,1.971,2.05-11.86,2.813-1.729,5.116s-26.789,56-22.855,83.393c0,0,16.72,9.973,33.432,0l4.441-74.9v-6.235l24.878-5.612L81.169,250.7l-18.548,6.032,8.579,3.065L176.507,292.2l105.306-32.412,71.2-25.464L176.507,166.422Z"
                data-name="Path 14618" transform="translate(0 -166.422)" />
        </g>
    </g>
</svg>